# xmcd
#
# Track frame offsets: 
#        150
#        17642
#        39827
#        64060
#        88892
#        109000
#        120330
#        143200
#        179862
#
# Disc length: 2471 seconds
#
# Revision: 0
# Processed by: cddbd v1.5.2PL0 Copyright (c) Steve Scherf et al.
# Submitted via: ExactAudioCopy v0.99pb3
#
DISCID=7609a509
DTITLE=These Immortal Souls - I'm Never Gonna Die Again
DYEAR=1992
DGENRE=Mute
TTITLE0=The King Of Kalifornia
TTITLE1=Shamed
TTITLE2=Black Milk
TTITLE3=Hyper Space
TTITLE4=The Story Goes
TTITLE5=Insomnicide
TTITLE6=All The Money's Gone
TTITLE7=Crowned
TTITLE8=Unlisted Track
EXTD=
EXTT0=
EXTT1=
EXTT2=
EXTT3=
EXTT4=
EXTT5=
EXTT6=
EXTT7=
EXTT8=
PLAYORDER=
